<svg width="65" height="181" viewBox="0 0 65 181" fill="none" xmlns="http://www.w3.org/2000/svg">
<g clip-path="url(#clip0_8_375)">
<path d="M34.7298 180.72C-4.67024 122.03 -3.79024 93.79 4.84976 78.84C10.6198 68.84 20.4698 63.73 31.4898 45C41.6998 27.64 45.6098 10.99 47.3298 0C49.5898 9.48 51.4598 23.49 47.3298 38.88C41.8498 59.28 29.4298 68.66 22.5398 79.35C12.3098 95.23 7.81976 124.02 34.7298 180.72Z" fill="#F08223"/>
<path d="M31.13 132.48C22.02 111.29 23.75 97.29 26.81 88.56C34.76 65.88 57.87 61.22 58.49 39.96C58.49 39.96 58.51 39.2 54.73 14.04C54.73 14.04 58.25 19.4 61.09 27.52C62.21 30.73 66.35 44.31 63.37 57.6C59.54 74.7 47.26 76 37.97 93.24C33.63 101.29 29.45 113.74 31.13 132.48Z" fill="#F08223"/>
</g>
<defs>
<clipPath id="clip0_8_375">
<rect width="64.42" height="180.72" fill="white"/>
</clipPath>
</defs>
</svg>
