<svg width="62" height="149" viewBox="0 0 62 149" fill="none" xmlns="http://www.w3.org/2000/svg">
<g clip-path="url(#clip0_8_371)">
<path d="M0 148.68C23.49 118.14 24.92 98.02 21.24 84.96C16.68 68.77 3.98 62.39 1.8 44.28C-0.2 27.69 8.03 12.92 15.48 2.88C11.95 12.58 8.46 27.2 14.04 41.4C20.88 58.81 34.78 58.88 41.4 75.96C48.16 93.4 41.99 114.78 30.6 128.88C19.6 142.5 5.46 147.18 0 148.68Z" fill="#F08223"/>
<path d="M49.9199 101.64C55.2499 77.58 50.6999 64.66 45.1199 57.24C40.5699 51.19 35.5199 49.02 29.1599 38.52C24.7199 31.18 19.6599 22.88 22.3199 14.04C25.1099 4.76 35.6399 0 35.6399 0C32.6899 3.63 28.7699 9.63 29.2799 16.68C30.3599 31.66 50.2899 35.82 58.0799 51.24C62.5099 60.01 64.2999 74.97 49.9199 101.64Z" fill="#F08223"/>
</g>
<defs>
<clipPath id="clip0_8_371">
<rect width="61.26" height="148.68" fill="white"/>
</clipPath>
</defs>
</svg>
