<svg width="277" height="274" viewBox="0 0 277 274" fill="none" xmlns="http://www.w3.org/2000/svg">
<g clip-path="url(#clip0_8_167)">
<path d="M245.553 91.0204L248.409 81.9655L238.96 82.2588C238.161 82.2588 232.359 82.0956 226.729 78.0533C227.148 78.094 227.568 78.1512 227.996 78.1512C233.79 78.1512 239.396 74.6952 241.643 69.7568L245.709 60.8324C240.614 60.8973 235.955 60.2615 235.955 60.2615C235.914 60.2538 232.243 59.7888 227.996 55.4939C224.951 52.4134 221.181 50.7835 217.098 50.7835C215.312 50.7835 213.716 51.101 212.341 51.533C212.555 50.8077 212.761 50.0743 212.876 49.3164C214.176 40.9626 208.744 34.5893 208.744 34.5972L201.641 25.8849L197.238 36.1212C197.221 36.1539 196.11 38.5499 194.118 39.7236C193.517 36.7162 192.044 33.3339 188.891 30.0986C182.949 24.0022 175.713 23.0975 171.928 23.0975C170.175 23.0975 168.923 23.2848 168.619 23.3338L160.042 25.0045C160.536 23.1055 161.59 19.8048 163.516 16.8301L168.249 9.52779L156.338 10.8724L152.544 2.89337L145.202 6.64236L138.411 0L131.638 6.64236L124.271 2.89337L120.484 10.8724L108.583 9.52779L113.324 16.8301C115.25 19.8048 116.303 23.0975 116.789 24.9965L108.608 23.3992L108.328 23.3502C107.916 23.2848 106.673 23.0975 104.912 23.0975C101.126 23.0975 93.8909 24.0101 87.9643 30.0986C84.8037 33.3259 83.3305 36.7162 82.7215 39.7236C80.7461 38.5662 79.643 36.2029 79.643 36.2029L75.2316 25.9092L68.0126 34.6785C67.1323 35.8116 62.7783 41.8019 63.9631 49.3325C64.0869 50.0824 64.2846 50.8161 64.4985 51.5414C63.1321 51.1095 61.5353 50.7911 59.7491 50.7911C55.6669 50.7911 51.8969 52.4214 48.8434 55.5019C44.6124 59.7812 40.958 60.2615 40.9912 60.2615C40.9912 60.2615 37.1306 60.9465 31.155 60.8405L35.1966 69.7648C37.4435 74.7117 43.0571 78.1593 48.8434 78.1593C49.2793 78.1593 49.6991 78.1025 50.1273 78.0614C44.5137 82.1041 38.7113 82.2673 38.0116 82.2749L28.3812 81.9655L31.295 91.0123C32.7601 95.6739 37.6575 103.4 47.0407 104.232C46.02 108.47 43.7567 113.213 38.7853 115.258L31.6163 118.184L35.5258 124.924C37.7315 128.559 42.9091 132.814 50.2838 132.814C51.8803 132.806 53.4194 132.651 54.9014 132.341C55.2799 134.004 55.7571 135.666 56.3167 137.313C58.5145 143.784 56.6212 148.299 56.597 148.348L53.0574 155.691L60.959 157.753C61.0577 157.786 63.4447 158.43 66.4323 158.43C67.7906 158.43 69.083 158.291 70.3014 158.005C71.223 157.794 72.1037 157.508 72.9513 157.166C73.9719 158.984 75.215 160.638 76.6639 162.122C81.7255 167.264 88.8948 169.872 97.9816 169.872H98.0143L104.501 169.791L91.1007 175.3L101.274 180.165C104.969 181.951 109.357 184.062 113.817 185.675L112.55 189.114L116.057 190.696C116.369 190.834 123.11 193.825 134.321 194.461C134.321 194.461 137.028 194.583 138.519 194.583C140.008 194.583 142.683 194.453 142.683 194.453C153.82 193.801 160.511 190.842 160.824 190.696L164.339 189.106L163.055 185.659C167.648 183.996 172.191 181.804 175.73 180.092L185.714 175.292L172.355 169.774L178.866 169.856C187.961 169.856 195.139 167.248 200.192 162.097C201.633 160.622 202.876 158.967 203.904 157.15C204.752 157.492 205.641 157.778 206.563 157.989C207.773 158.274 209.065 158.413 210.423 158.413C213.362 158.413 215.773 157.769 215.839 157.753L223.774 155.675L220.316 148.47C220.234 148.282 218.342 143.775 220.539 137.297C221.099 135.642 221.568 133.979 221.947 132.325C223.436 132.635 224.992 132.797 226.597 132.797C235.988 132.797 240.491 126.253 241.363 124.835L245.232 118.168L238.063 115.25C233.083 113.205 230.828 108.453 229.815 104.223C239.067 103.441 244.038 95.7146 245.553 91.0204ZM117.415 28.1178L117.316 28.1425L117.398 28.0365L117.415 28.1178Z" fill="white"/>
<path d="M138.421 27.7184C130.831 27.7264 125.144 30.1877 123.901 33.0811L138.421 38.7535L152.94 33.0811C151.705 30.1877 146.018 27.7264 138.421 27.7184Z" fill="white"/>
<path d="M138.568 177.884H138.552H138.428H138.289H138.28C133.679 177.916 127.35 176.979 124.296 176.099L120.625 185.936C123.045 186.791 131.243 188.422 138.428 188.422C145.597 188.422 153.804 186.783 156.215 185.936L152.553 176.099C149.491 176.987 143.169 177.916 138.568 177.884Z" fill="white"/>
<path d="M166.348 168.104C163.616 169.636 157.517 171.935 153.969 173.002L156.949 181.128C162.439 179.644 166.966 177.909 170.71 176.05L164.529 174.013L166.348 168.104Z" fill="white"/>
<path d="M110.502 168.104L112.33 174.013L106.14 176.05C109.877 177.909 114.428 179.644 119.894 181.128L122.874 173.002C119.343 171.935 113.235 169.628 110.502 168.104Z" fill="white"/>
<path d="M138.421 18.3132C144.141 18.3132 149.755 19.6662 154.068 22.0463C154.463 20.7339 155.014 19.1445 155.764 17.4823L154.134 17.6775L152.422 17.8569L151.697 16.3165L149.517 11.7525L145.541 13.8065L143.993 14.5889L142.759 13.3825L138.437 9.14447L134.125 13.3825L132.89 14.5889L131.342 13.8065L127.342 11.7525L125.186 16.3165L124.445 17.8569L122.733 17.6775L121.103 17.4823C121.853 19.1529 122.396 20.7339 122.799 22.0463C127.12 19.6662 132.717 18.3132 138.421 18.3132Z" fill="white"/>
<path d="M225.759 71.0615C226.499 71.3141 227.257 71.4282 228.006 71.4282C231.241 71.4282 234.368 69.3578 235.447 66.9861C235.447 66.9861 229.512 66.6275 223.133 60.2135C221.1 58.1351 218.952 57.5158 217.108 57.5158C214.244 57.5158 212.095 59.0151 212.095 59.0151C219.8 63.0744 221.372 69.5944 225.759 71.0615Z" fill="white"/>
<path d="M48.8377 71.4282C49.5866 71.4282 50.344 71.3141 51.0683 71.0615C55.472 69.5944 57.0523 63.0744 64.7561 59.0151C64.7561 59.0151 62.5996 57.5158 59.7515 57.5158C57.8999 57.5158 55.7514 58.1351 53.7105 60.2135C47.3395 66.6275 41.4052 66.9861 41.4052 66.9861C42.4667 69.3578 45.6027 71.4282 48.8377 71.4282Z" fill="white"/>
<path d="M227.85 97.5565C227.982 97.5641 228.097 97.5642 228.237 97.5642C236.311 97.5642 239.052 88.9988 239.052 88.9988H238.896C237.414 88.9988 225.405 88.6563 216.919 77.9715C211.33 70.9463 206.754 64.7684 197.708 62.3398L196.82 62.1847L196.622 61.2886C196.375 59.919 197.321 58.6396 199.47 57.2543C211.948 49.1613 203.479 38.843 203.479 38.843C203.479 38.843 199.915 47.099 191.938 47.099C191.75 47.099 191.544 47.0909 191.346 47.0909C190.441 47.0422 189.568 47.0095 188.688 46.8222L187.214 46.5369C187.214 46.5369 189.486 40.4162 184.004 34.7923C179.872 30.5463 174.843 29.829 171.938 29.829C170.473 29.829 169.543 30.0167 169.543 30.0167C172.3 33.5864 174.292 39.5034 171.106 43.1542C168.357 46.2923 161.641 46.447 161.641 51.1252C161.641 53.1056 163.509 55.4205 166.868 57.4985C176.967 63.7985 186.992 72.1527 191.157 83.3504C196.367 97.32 190.498 106.586 182.119 111.9C182.119 111.9 184.745 114.296 188.556 114.598C189.33 114.671 190.087 114.704 190.795 114.704C198.836 114.704 202.993 110.971 202.993 110.971C202.993 110.971 202.31 116.13 198.12 120.923C194.26 125.348 189.19 127.948 181.461 128.062C181.461 128.062 181.214 131.616 184.638 134.688C186.827 136.628 191.889 137.264 191.889 137.264C191.889 137.264 182.416 139.162 181.37 153.018C180.802 160.524 178.868 163.132 178.868 163.132H179.041C201.026 163.132 200.457 144.46 200.457 144.46C200.457 144.46 201.988 149.986 208.121 151.428C208.861 151.624 209.651 151.697 210.409 151.697C212.384 151.697 214.096 151.241 214.096 151.241C214.096 151.241 210.886 144.533 214.071 135.153C216.714 127.369 216.285 121.599 216.285 121.599C216.285 121.599 219.249 126.032 226.591 126.073H226.665C232.78 126.073 235.447 121.485 235.447 121.485C220.788 115.462 222.237 96.0161 222.237 96.0161C222.237 96.0161 224.138 97.4179 227.85 97.5565ZM223.438 117.866C217.479 114.957 213.709 107.23 212.795 104.443C211.808 119.765 204.252 130.401 195.42 140.638C190.836 145.943 189.239 151.102 189.239 151.102C189.239 151.102 190.12 145.259 194.087 140.499C202.326 130.694 210.153 118.494 210.738 104.386C211.141 94.5405 208.581 86.5538 204.589 79.9766C206.82 86.8306 206.507 95.2255 198.927 103.057C198.927 103.057 214.014 85.152 192.919 66.798C184.474 59.813 175.238 55.5019 170.481 52.4452C187.667 57.9957 196.054 51.8831 196.054 51.8831C190.564 56.5939 183.461 56.5125 179.058 55.836C180.251 56.415 181.494 57.0178 182.835 57.727C197.321 65.5182 210.343 78.3382 212.565 96.0975V95.9588C215.94 113.392 223.438 117.866 223.438 117.866Z" fill="white"/>
<path d="M84.9537 137.264C84.9537 137.264 90.0153 136.636 92.205 134.688C95.6204 131.616 95.3822 128.062 95.3822 128.062C87.6448 127.956 82.5832 125.348 78.6979 120.931C74.5417 116.139 73.8502 110.979 73.8502 110.979C73.8502 110.979 78.0064 114.712 86.0398 114.712C86.7645 114.712 87.5134 114.679 88.287 114.606C92.0979 114.305 94.7316 111.908 94.7316 111.908C86.3528 106.595 80.476 97.32 85.6779 83.3504C89.8511 72.1607 99.868 63.7985 109.967 57.4985C113.325 55.4205 115.194 53.1137 115.194 51.1252C115.194 46.447 108.486 46.2923 105.737 43.1542C102.551 39.5034 104.551 33.578 107.3 30.0167C107.3 30.0167 106.387 29.829 104.913 29.829C102.016 29.829 96.9868 30.5463 92.8553 34.7923C87.3569 40.4162 89.6368 46.5369 89.6368 46.5369L88.1636 46.8222C87.2829 47.0095 86.4022 47.0422 85.5049 47.0909C85.2994 47.0909 85.1179 47.099 84.9205 47.099C76.9284 47.099 73.3807 38.8514 73.3807 38.8514C73.3807 38.8514 64.911 49.1689 77.3813 57.262C79.5293 58.6477 80.4675 59.9274 80.2208 61.2966L80.0231 62.1932L79.1177 62.3479C70.0887 64.7764 65.5042 70.9547 59.9153 77.98C51.4456 88.6483 39.4533 88.9988 37.9554 88.9988H37.7905C37.7905 88.9988 40.5314 97.5642 48.606 97.5642C48.7374 97.5642 48.8527 97.5641 48.9926 97.5565C52.7052 97.4255 54.6147 96.0161 54.6147 96.0161C54.6147 96.0161 56.0466 115.454 41.404 121.485C41.404 121.485 44.0709 126.073 50.1863 126.073H50.2603C57.6103 126.032 60.5655 121.599 60.5655 121.599C60.5655 121.599 60.1373 127.369 62.771 135.153C65.9567 144.533 62.7634 151.241 62.7634 151.241C62.7634 151.241 64.4751 151.697 66.4424 151.697C67.2075 151.697 67.99 151.624 68.7223 151.428C74.8458 149.986 76.3853 144.46 76.3853 144.46C76.3853 144.46 75.8252 163.132 97.8101 163.132H97.9666C97.9666 163.132 96.0406 160.524 95.4809 153.018C94.4271 139.162 84.9537 137.264 84.9537 137.264ZM81.4226 140.638C72.5906 130.401 65.0432 119.765 64.0469 104.443C63.1338 107.222 59.3799 114.957 53.4214 117.866C53.4214 117.866 60.9113 113.392 64.2773 95.9588V96.0975C66.5083 78.3467 79.5212 65.5182 94.0158 57.727C95.341 57.0093 96.5998 56.4065 97.7854 55.836C93.3818 56.5125 86.2788 56.5939 80.789 51.8831C80.789 51.8831 89.1762 57.9957 106.353 52.4452C101.596 55.5019 92.3696 59.813 83.9245 66.798C62.8208 85.152 77.9163 103.057 77.9163 103.057C70.3273 95.217 70.0228 86.8306 72.2533 79.9766C68.2532 86.5614 65.7012 94.5405 66.1132 104.386C66.6891 118.494 74.5166 130.694 82.7397 140.499C86.7148 145.251 87.6121 151.102 87.6121 151.102C87.6121 151.102 85.9986 145.943 81.4226 140.638Z" fill="white"/>
<path d="M122.166 68.9984C122.528 69.3812 122.882 69.7971 123.219 70.2129C123.302 70.3108 123.376 70.4002 123.458 70.5143C123.77 70.9301 124.092 71.3701 124.396 71.8186C124.462 71.9081 124.528 72.014 124.602 72.12C124.972 72.674 125.318 73.2446 125.664 73.8313C128.833 79.2517 133.911 82.4869 138.413 82.4953C142.924 82.4869 147.986 79.2517 151.171 73.8313C151.525 73.2285 151.879 72.6418 152.249 72.0954C152.307 72.014 152.365 71.9407 152.414 71.8589C152.727 71.3947 153.056 70.9382 153.402 70.4982C153.476 70.4003 153.542 70.3189 153.607 70.2375C153.961 69.8055 154.323 69.3812 154.694 68.9904C154.76 68.9251 154.809 68.8683 154.867 68.8191C156.48 67.1812 158.406 65.934 160.925 65.2414L159.806 64.5975H159.739L155.279 62.03L150.694 59.4302L138.446 66.0316L138.413 66.0074L138.389 66.0316L126.133 59.4302L121.557 62.0219L117.087 64.5894H117.038L115.902 65.2329C118.429 65.926 120.347 67.1566 121.968 68.7949C122.042 68.8602 122.092 68.9335 122.166 68.9984ZM133.459 68.4685H138.644H143.821V71.9895C142.603 70.5143 140.232 70.8161 140.232 70.8161V75.8935C140.232 75.8935 140.323 78.3874 141.204 79.4717H138.644H136.076C136.973 78.3954 137.055 75.8935 137.055 75.8935V70.8161C137.055 70.8161 134.693 70.5143 133.459 71.9895V68.4685Z" fill="white"/>
<path d="M137.36 61.6387V41.0275L124.108 36.5772L127.606 56.5536L137.36 61.6387ZM134.512 46.0888V49.3973L133.87 49.104C133.837 49.0798 132.898 48.8675 131.252 47.5801C128.536 45.4937 128.487 43.5704 128.487 43.5704L134.512 46.0888Z" fill="white"/>
<path d="M149.246 56.5536L152.728 36.5772L139.484 41.0275V61.6387L149.246 56.5536ZM142.332 46.0888L148.357 43.5785C148.357 43.5785 148.307 45.5017 145.583 47.5881C143.945 48.8759 142.998 49.0875 142.966 49.1125L142.323 49.4058V46.0888H142.332Z" fill="white"/>
<path d="M118.618 109.423C119.91 109.888 121.474 109.986 122.273 109.986C122.305 109.888 122.347 109.766 122.388 109.619C122.462 109.382 122.527 109.154 122.577 108.894C122.799 107.752 122.882 106.457 122.898 105.625C122.355 105.291 121.589 104.696 121.161 103.808C120.667 102.781 119.968 102.308 118.939 102.308C117.606 102.308 116.173 103.099 115.564 103.474C115.079 106.318 117.194 108.902 118.618 109.423Z" fill="white"/>
<path d="M147.93 98.4849C145.469 101.133 140.654 105.747 140.415 105.983L140.127 106.276L124.908 106.04C124.9 107.532 124.653 108.803 124.414 109.732C124.373 109.887 124.332 110.05 124.291 110.213L142.398 113.432C144.283 112.128 149.469 108.379 151.477 106.912C150.012 104.793 149.872 102.283 150.202 100.514C149.246 99.9028 148.514 99.2186 147.93 98.4849Z" fill="white"/>
<path d="M149.992 80.3606C146.486 83.8086 143.12 85.0798 140.115 85.3732C139.572 85.43 139.021 85.4626 138.461 85.4626H138.42H138.387C137.827 85.4626 137.267 85.43 136.724 85.3732C136.197 85.3244 135.646 85.2426 135.094 85.1205C134.897 85.895 134.65 87.5168 135.358 89.0488C135.992 90.4426 137.284 91.4773 139.169 92.1623L139.802 92.4069L139.811 93.0831C139.811 93.287 139.959 97.6714 144.79 98.8858C145.581 98.0791 146.297 97.3538 146.824 96.751C145.836 94.4527 146.354 92.1051 147.787 90.9563C147.721 91.2005 147.095 96.9545 151.754 99.0897L152.519 99.4487L152.289 100.255C152.215 100.5 150.659 106.066 156.297 108.136L157.294 108.511L156.849 109.473C156.75 109.685 154.536 114.738 159.746 117.606H171.047V108.723C167.031 108.234 165.326 105.039 164.891 102.773C163.022 102.456 161.573 101.657 160.586 100.353C158.215 97.2644 160.256 94.4361 160.281 94.281C160.273 94.306 160.281 97.3212 162.157 99.1796C163.088 100.076 164.191 100.768 165.861 100.923L166.684 100.997L166.759 101.828C166.775 102.007 167.228 106.083 171.055 106.726L171.047 88.5846C171.047 85.7725 171.878 82.9443 172.874 80.3364H149.992V80.3606Z" fill="white"/>
<path d="M119.582 88.6716L119.277 100.228L120.602 100.424L123.845 89.3401L122.199 85.9332L119.582 88.6716Z" fill="white"/>
<path d="M155.335 141.673C155.434 141.673 155.549 141.689 155.657 141.714C157.673 142.285 158.184 149.489 161.723 150.133C162.068 150.206 162.389 150.223 162.669 150.223C163.69 150.223 164.299 149.791 164.957 149.025C164.957 149.025 163.179 146.254 161.846 144.387C160.076 141.942 158.702 138.984 155.409 138.984C155.335 138.984 155.236 138.984 155.154 138.992C154.068 139.049 153.401 139.571 153.401 139.571C152.068 138.739 150.825 138.454 149.697 138.454C147.631 138.454 146.026 139.391 145.228 139.391H145.195L137.836 138.674C136.684 138.568 135.779 137.419 135.45 136.971C135.367 136.848 135.326 136.775 135.326 136.775C135.326 136.579 135.326 136.375 135.31 136.196C135.063 130.239 130.404 127.688 128.75 127.647C128.75 127.647 128.947 126.514 128.495 126.082L126.873 128.03L121.548 125.381L125.342 129.774L122.124 133.352C121.721 133.76 121.77 134.314 121.935 134.542L123.326 135.756L125.087 134.696C125.178 134.632 125.334 134.615 125.531 134.615C126.017 134.615 126.75 134.738 127.408 134.738C128.124 134.738 128.75 134.582 128.824 133.914C128.602 136.123 126.536 139.962 127.894 142.977L128.898 145.251L122.396 144.322L119.35 149.415C118.412 151.111 118.263 152.945 119.169 153.939L120.305 155.349C120.305 155.349 121.902 153.67 122.264 152.57L121.745 152.008C121.309 151.535 121.334 151.111 121.597 150.598L123.506 147.46L131.186 149.253L131.589 148.568C132.108 147.712 132.857 147.452 133.68 147.452C134.017 147.452 134.363 147.492 134.725 147.549C136.149 147.827 138.495 148.201 140.841 148.201C143.417 148.201 145.968 147.745 147.327 146.237C150.109 150.32 155.747 150.972 155.302 153.043L153.821 160.035C154.801 159.995 155.747 159.929 156.644 159.807L158.051 152.529C158.208 151.739 158.356 150.671 158.356 150.671C157.813 150.125 156.496 148.968 155.755 147.566C154.759 145.675 155.302 144.689 154.372 142.227C154.405 142.244 154.685 141.673 155.335 141.673ZM126.61 131.453C126.231 131.445 125.959 131.127 125.976 130.752C126.009 130.393 126.314 130.108 126.684 130.141C127.063 130.157 127.334 130.483 127.318 130.842C127.285 131.2 126.972 131.478 126.61 131.453Z" fill="white"/>
<path d="M116.125 148.29C116.125 148.29 118.669 147.255 118.899 146.513L118.562 145.674C118.323 145.128 118.356 144.533 118.817 144.207L121.566 142.324L126.159 143.196C126.159 143.196 125.328 142.169 125.41 140.792L121.031 139.871L116.899 142.365C115.13 143.677 114.998 145.82 115.582 147.092L116.125 148.29Z" fill="white"/>
<path d="M148.588 160.14C149.411 160.108 150.316 160.091 151.312 160.091C151.312 160.091 153.674 153.253 153.806 153.033C152.481 152.455 149.732 151.012 148.67 150.352C149.37 151.387 151.073 152.577 150.736 153.49L148.588 160.14Z" fill="white"/>
<path d="M171.074 119.586H105.778V143.906C105.778 153.849 113.046 160.076 123.771 160.076C132.734 160.076 135.096 160.419 138.43 163.695C140.726 161.429 142.628 160.582 146.529 160.263L146.62 159.889L148.677 153.589C148.562 153.45 145.196 149.66 145.196 149.66C143.862 150.1 142.743 150.174 140.858 150.174C138.924 150.174 136.743 149.954 134.381 149.514C134.142 149.457 133.92 149.44 133.697 149.44C133.409 149.44 133.384 149.465 133.31 149.604L132.899 150.272L132.15 151.494L130.742 151.176L124.479 149.718L123.623 151.119L123.754 151.266L124.52 152.097L124.183 153.181C123.722 154.6 122.223 156.254 121.771 156.71L120.207 158.373L118.783 156.588L117.713 155.26C116.585 154.013 116.322 152.097 116.956 150.092C116.939 150.109 116.915 150.117 116.89 150.117L115.12 150.842L114.322 149.131L113.762 147.916C112.799 145.781 113.153 142.659 115.746 140.777L120.791 137.957L125.59 138.894C125.705 138.438 125.878 136.808 126.018 136.392C125.927 136.384 125.837 136.359 125.746 136.359L122.981 137.378L120.314 135.553C120.314 135.553 119.269 134.559 120.215 133.564L122.8 129.693L116.256 121.559L126.314 125.65L126.981 124.827L128.339 123.222L129.878 124.672C130.315 125.088 130.561 125.601 130.685 126.115C133.458 127.182 138.422 130.337 138.858 135.463L137.302 136.082V136.123C137.656 136.539 137.952 136.71 138.043 136.726L145.22 137.427C145.402 137.394 145.632 137.313 145.887 137.24C146.776 136.938 148.118 136.506 149.707 136.506C150.999 136.506 152.25 136.8 153.451 137.354C153.896 137.191 154.439 137.068 155.065 137.028L155.41 137.02C159.254 137.02 161.163 139.864 162.695 142.13C162.95 142.521 163.205 142.896 163.468 143.263C164.81 145.137 166.563 147.884 166.637 147.998L167.427 149.22L166.456 150.337C165.707 151.192 164.588 152.195 162.662 152.195C162.267 152.195 161.831 152.154 161.361 152.065C160.95 151.991 160.58 151.869 160.217 151.723C160.159 152.097 160.085 152.545 160.011 152.929L158.752 159.432C166.283 157.598 171.066 151.967 171.066 143.914L171.074 119.586Z" fill="#FFDD2D"/>
<path d="M105.779 117.631H156.555C154.02 115.039 154.053 111.755 154.703 109.619C153.962 109.269 153.353 108.845 152.81 108.389C150.826 109.839 144.768 114.208 143.188 115.3L142.851 115.528L122.924 111.958H122.52C122.043 111.958 121.343 111.942 120.578 111.852C120.364 112.741 119.59 113.352 118.701 113.352C118.603 113.352 118.487 113.344 118.38 113.32C117.862 113.23 117.409 112.969 117.104 112.537C116.792 112.114 116.668 111.608 116.759 111.086L116.833 110.663C114.775 109.228 112.882 106.025 113.722 102.651L113.804 102.292L114.092 102.089C114.133 102.056 114.479 101.828 114.989 101.534L113.54 101.314C112.997 101.217 112.635 100.719 112.718 100.19C112.808 99.6518 113.318 99.2686 113.853 99.3746L117.302 99.9129L117.615 87.8831L122.751 82.5038L125.953 89.179L122.57 100.752L125.615 101.225C126.15 101.306 126.521 101.804 126.438 102.35C126.356 102.831 125.944 103.164 125.459 103.164C125.409 103.164 125.352 103.164 125.303 103.157L122.825 102.757C122.858 102.831 122.907 102.871 122.94 102.953C123.204 103.49 123.788 103.882 124.134 104.045L139.328 104.281C139.97 103.662 141.566 102.113 143.205 100.475C139.468 99.0732 138.11 95.8783 137.879 93.7592C135.789 92.8792 134.348 91.5587 133.55 89.839C132.578 87.7119 132.924 85.5847 133.179 84.5496C131.154 83.8162 129.023 82.4797 126.85 80.3445H103.968C104.947 82.9523 105.779 85.7802 105.779 88.5923V117.631Z" fill="#FFDD2D"/>
<path d="M126.692 130.141C126.321 130.108 126.008 130.393 125.984 130.752C125.959 131.127 126.239 131.444 126.618 131.453C126.98 131.485 127.301 131.208 127.333 130.841C127.333 130.482 127.07 130.148 126.692 130.141Z" fill="black"/>
<path d="M170.981 174.239L167.22 172.813L168.257 168.967L169.401 164.769C169.401 164.769 162.734 168.347 153.343 171.036C150.675 171.795 148.659 172.137 148.659 172.137V174.989C148.659 174.989 143.638 175.853 138.56 175.853H138.502H138.428H138.329H138.272C133.193 175.853 128.173 174.989 128.173 174.989V172.137C128.173 172.137 126.148 171.795 123.489 171.036C114.098 168.347 107.439 164.769 107.439 164.769L108.567 168.967L109.628 172.813L105.858 174.239L101.677 175.788C106.476 178.078 113.118 181.42 119.201 183.066L117.769 186.946C117.769 186.946 125.481 190.426 138.329 190.458V190.466H138.371H138.428H138.478H138.511V190.458C151.375 190.426 159.079 186.946 159.079 186.946L157.639 183.066C163.722 181.42 170.38 178.078 175.155 175.788L170.981 174.239ZM106.139 176.049L112.328 174.011L110.501 168.103C113.225 169.635 119.341 171.933 122.88 173.001L119.892 181.126C114.427 179.635 109.876 177.899 106.139 176.049ZM138.428 188.421C131.243 188.421 123.037 186.783 120.625 185.935L124.296 176.098C127.341 176.978 133.679 177.915 138.28 177.883H138.288H138.428H138.552H138.568C143.169 177.915 149.491 176.978 152.553 176.098L156.215 185.935C153.803 186.791 145.605 188.421 138.428 188.421ZM156.948 181.126L153.968 173.001C157.516 171.933 163.615 169.635 166.347 168.103L164.528 174.011L170.71 176.049C166.965 177.899 162.438 179.635 156.948 181.126Z" fill="black"/>
<path d="M138.42 20.6935C146.075 20.6935 152.199 23.2038 155.581 25.8852C155.581 25.8852 156.585 19.8948 160.018 14.6055L153.853 15.2981L150.627 8.5091L144.429 11.6715L138.42 5.78711L132.428 11.6715L126.222 8.5091L123.004 15.2981L116.839 14.6055C120.271 19.8948 121.275 25.8852 121.275 25.8852C124.667 23.2038 130.774 20.6935 138.42 20.6935ZM122.724 17.6782L124.436 17.8575L125.176 16.3168L127.333 11.7527L131.333 13.7984L132.881 14.5812L134.116 13.3748L138.428 9.13676L142.75 13.3748L143.984 14.5812L145.531 13.7984L149.507 11.7527L151.688 16.3168L152.413 17.8575L154.125 17.6782L155.754 17.4825C155.005 19.1532 154.454 20.7341 154.059 22.0465C149.746 19.6665 144.132 18.3138 138.412 18.3138C132.716 18.3138 127.111 19.6665 122.782 22.0465C122.378 20.7341 121.835 19.1452 121.086 17.4825L122.724 17.6782Z" fill="black"/>
<path d="M228.228 100.18C238.13 100.18 241.439 90.2044 241.579 89.7805L242.682 86.2681L238.969 86.3821H238.953C237.644 86.3821 226.722 86.0968 218.976 76.3493L218.244 75.4447C213.182 69.0713 208.384 63.0159 199.807 60.253C200.054 60.033 200.408 59.7557 200.894 59.4459C205.445 56.4794 208.096 52.8771 208.762 48.6962C209.733 42.4039 205.684 37.3917 205.503 37.188L202.745 33.814L201.026 37.8157C200.91 38.0684 198.013 44.4746 191.922 44.4746H191.469C191.05 44.4496 190.654 44.4335 190.259 44.4013C190.473 41.5404 189.946 37.1147 185.897 32.9664C181.033 27.9703 175.057 27.2207 171.929 27.2207C170.258 27.2207 169.147 27.4243 169.032 27.4407L164.867 28.2557L167.435 31.6053C169.452 34.189 171.279 38.9567 169.114 41.4509C168.423 42.2411 166.999 42.885 165.633 43.5289C162.826 44.8082 158.998 46.5852 158.998 51.1163C158.998 54.0505 161.295 57.1153 165.46 59.7231C177.79 67.4007 185.395 75.412 188.679 84.255C193.758 97.8575 187.131 105.616 180.695 109.7L177.806 111.541L180.333 113.839C180.67 114.133 183.765 116.831 188.333 117.222C189.197 117.279 190.029 117.328 190.802 117.328C193.733 117.328 196.227 116.871 198.252 116.26C197.692 117.23 197.008 118.216 196.144 119.211C192.465 123.432 187.938 125.355 181.427 125.454L179.008 125.494L178.819 127.899C178.794 128.379 178.612 132.838 182.876 136.627C183.526 137.214 184.317 137.695 185.14 138.094C182.251 140.67 179.312 145.152 178.745 152.838C178.267 159.252 176.72 161.623 176.703 161.648L174.028 165.691L178.86 165.755C186.843 165.755 192.959 163.572 197.198 159.252C199.7 156.693 201.132 153.808 201.98 151.248C203.371 152.422 205.166 153.449 207.503 153.995C208.392 154.199 209.363 154.313 210.408 154.313C212.664 154.313 214.548 153.84 214.762 153.791L217.849 152.976L216.483 150.124C216.384 149.896 213.808 144.174 216.582 136.008C217.775 132.479 218.384 129.317 218.68 126.855C220.623 127.858 223.224 128.689 226.59 128.697C234.228 128.697 237.595 123.049 237.751 122.813L239.258 120.221L236.467 119.08C227.364 115.339 225.347 105.29 224.944 99.846C225.767 100.001 226.705 100.147 227.767 100.18H228.228ZM235.447 121.485C235.447 121.485 232.78 126.073 226.664 126.073H226.59C219.248 126.032 216.285 121.598 216.285 121.598C216.285 121.598 216.713 127.369 214.063 135.152C210.878 144.533 214.087 151.24 214.087 151.24C214.087 151.24 212.376 151.697 210.4 151.697C209.643 151.697 208.853 151.624 208.112 151.428C201.98 149.986 200.449 144.459 200.449 144.459C200.449 144.459 201.017 163.132 179.033 163.132H178.86C178.86 163.132 180.794 160.523 181.37 153.017C182.415 139.162 191.889 137.263 191.889 137.263C191.889 137.263 186.835 136.635 184.646 134.687C181.222 131.615 181.46 128.062 181.46 128.062C189.197 127.956 194.259 125.348 198.12 120.922C202.301 116.13 202.992 110.971 202.992 110.971C202.992 110.971 198.836 114.704 190.794 114.704C190.086 114.704 189.329 114.671 188.556 114.598C184.753 114.296 182.119 111.9 182.119 111.9C190.49 106.586 196.366 97.3115 191.157 83.3419C186.983 72.1518 176.958 63.79 166.867 57.4896C163.509 55.412 161.641 53.1052 161.641 51.1163C161.641 46.4385 168.357 46.2919 171.114 43.1457C174.292 39.4948 172.3 33.5693 169.542 30.008C169.542 30.008 170.472 29.8203 171.938 29.8203C174.843 29.8203 179.872 30.5457 184.004 34.7837C189.494 40.4073 187.214 46.528 187.214 46.528L188.687 46.8133C189.568 47.0006 190.441 47.0333 191.346 47.074C191.544 47.074 191.741 47.0824 191.938 47.0824C199.914 47.0824 203.478 38.8264 203.478 38.8264C203.478 38.8264 211.956 49.1523 199.478 57.237C197.33 58.6227 196.383 59.9024 196.63 61.2716L196.827 62.1682L197.716 62.3229C206.762 64.7514 211.339 70.9297 216.927 77.955C225.413 88.6398 237.422 88.9819 238.904 88.9819H239.06C239.06 88.9819 236.319 97.5476 228.245 97.5476C228.113 97.5476 227.998 97.5476 227.858 97.5395C224.146 97.409 222.245 95.9991 222.245 95.9991C222.245 95.9991 220.787 115.453 235.447 121.485Z" fill="black"/>
<path d="M210.836 61.3297C214.532 63.2779 216.68 65.8857 218.565 68.2002C220.417 70.4579 222.179 72.6338 224.928 73.5384C225.907 73.8728 226.944 74.0275 227.998 74.0275C232.13 74.0275 236.278 71.5253 237.85 68.0616L239.431 64.5898L235.603 64.3614C235.422 64.3533 230.5 63.9133 225.018 58.3632C222.763 56.0894 220.039 54.8911 217.1 54.8911C213.511 54.8911 210.853 56.668 210.557 56.8469L207.034 59.3004L210.836 61.3297ZM217.109 57.5154C218.952 57.5154 221.101 58.1351 223.133 60.2131C229.512 66.6275 235.446 66.9857 235.446 66.9857C234.368 69.3494 231.241 71.4278 228.006 71.4278C227.257 71.4278 226.508 71.3133 225.759 71.0607C221.372 69.5936 219.8 63.0736 212.087 59.0152C212.087 59.0152 214.244 57.5154 217.109 57.5154Z" fill="black"/>
<path d="M212.565 95.9596V96.0898C210.343 78.339 197.322 65.519 182.836 57.7193C181.494 57.0101 180.259 56.4073 179.058 55.8287C183.469 56.5048 190.572 56.5866 196.054 51.8759C196.054 51.8759 187.667 57.9885 170.481 52.4384C175.238 55.4943 184.482 59.8061 192.919 66.7903C214.014 85.1447 198.918 103.05 198.918 103.05C206.499 95.2178 206.812 86.8233 204.581 79.9693C208.573 86.5461 211.125 94.5332 210.729 104.379C210.146 118.486 202.318 130.687 194.079 140.491C190.12 145.251 189.231 151.095 189.231 151.095C189.231 151.095 190.828 145.936 195.412 140.63C204.244 130.394 211.791 119.758 212.779 104.436C213.693 107.215 217.455 114.949 223.422 117.859C223.438 117.867 215.94 113.392 212.565 95.9596Z" fill="black"/>
<path d="M100.139 161.64C100.13 161.615 98.5998 159.244 98.1061 152.83C97.5295 145.144 94.5993 140.662 91.7023 138.086C92.5418 137.695 93.3154 137.214 93.9657 136.619C98.2213 132.829 98.0402 128.371 98.0155 127.891L97.8509 125.486L95.4145 125.446C88.9202 125.34 84.3851 123.416 80.7056 119.202C79.85 118.208 79.1585 117.222 78.5984 116.252C80.6236 116.863 83.1012 117.32 86.0394 117.32C86.8296 117.32 87.6444 117.271 88.5086 117.214C93.0768 116.822 96.1719 114.133 96.5173 113.831L99.0443 111.533L96.1554 109.691C89.6942 105.6 83.0927 97.841 88.1628 84.2465C91.4472 75.404 99.0443 67.3927 111.39 59.7151C115.555 57.1072 117.835 54.0425 117.835 51.1082C117.835 46.5772 114.016 44.7925 111.21 43.5209C109.843 42.877 108.419 42.2331 107.728 41.4429C105.555 38.9567 107.39 34.1811 109.399 31.5974L111.983 28.2477L107.802 27.4327C107.679 27.4163 106.584 27.2127 104.905 27.2127C101.777 27.2127 95.8177 27.9623 90.9449 32.9584C86.8874 37.1151 86.352 41.5404 86.5582 44.3932C86.1627 44.4255 85.7681 44.4416 85.3564 44.4666H84.912C78.8047 44.4666 75.9158 38.0604 75.8005 37.8077L74.0803 33.806L71.2978 37.18C71.1417 37.3837 67.0756 42.4043 68.0631 48.6882C68.7219 52.8691 71.3722 56.4714 75.9239 59.4378C76.4176 59.7473 76.7633 60.0249 77.0104 60.2449C68.4416 63.0079 63.6517 69.0714 58.5893 75.4447L57.857 76.3493C50.12 86.0968 39.1731 86.3821 37.8645 86.3821L34.1357 86.2681L35.2715 89.7805C35.4031 90.2044 38.7038 100.18 48.6137 100.18L49.0913 100.164C50.1366 100.131 51.0747 99.9927 51.9146 99.8299C51.503 105.266 49.4863 115.315 40.3745 119.064L37.5928 120.205L39.0991 122.796C39.2471 123.033 42.622 128.681 50.2765 128.681C53.6179 128.673 56.2188 127.842 58.1696 126.839C58.466 129.301 59.075 132.462 60.2687 135.991C63.0423 144.158 60.4584 149.879 60.3593 150.108L58.9933 152.96L62.0876 153.775C62.2934 153.824 64.1948 154.297 66.442 154.297C67.4954 154.297 68.4667 154.183 69.3393 153.979C71.6847 153.433 73.4956 152.406 74.8704 151.232C75.7095 153.791 77.1503 156.676 79.6441 159.236C83.8913 163.555 89.9987 165.739 97.9824 165.739L102.822 165.674L100.139 161.64ZM97.8012 163.132C75.8167 163.132 76.3768 144.46 76.3768 144.46C76.3768 144.46 74.8454 149.985 68.7134 151.428C67.981 151.623 67.199 151.696 66.4339 151.696C64.4581 151.696 62.7544 151.24 62.7544 151.24C62.7544 151.24 65.9482 144.533 62.7625 135.152C60.1288 127.369 60.5566 121.598 60.5566 121.598C60.5566 121.598 57.6018 126.032 50.2518 126.073H50.1778C44.062 126.073 41.3951 121.484 41.3951 121.484C56.0462 115.462 54.6058 96.0152 54.6058 96.0152C54.6058 96.0152 52.7048 97.4175 48.9841 97.5557C48.8527 97.5641 48.7289 97.5641 48.5975 97.5641C40.5148 97.5641 37.7821 88.9984 37.7821 88.9984H37.9465C39.4364 88.9984 51.429 88.6559 59.9149 77.9711C65.5034 70.9458 70.0883 64.776 79.1176 62.3394L80.0231 62.1847L80.22 61.2882C80.4675 59.919 79.5289 58.6392 77.3808 57.2539C64.9025 49.1608 73.3803 38.8427 73.3803 38.8427C73.3803 38.8427 76.9279 47.0905 84.9205 47.0905C85.1174 47.0905 85.2986 47.0825 85.5044 47.0825C86.4017 47.0333 87.291 47.0011 88.1628 46.8133L89.6364 46.528C89.6364 46.528 87.3565 40.4073 92.8548 34.7841C96.9868 30.5377 102.016 29.8207 104.913 29.8207C106.386 29.8207 107.3 30.008 107.3 30.008C104.551 33.5777 102.559 39.4947 105.736 43.1461C108.485 46.2838 115.193 46.4386 115.193 51.1167C115.193 53.0972 113.325 55.4117 109.967 57.49C99.8672 63.7904 89.8422 72.1523 85.6771 83.3419C80.4756 97.3115 86.3443 106.578 94.7316 111.9C94.7316 111.9 92.0974 114.296 88.2866 114.598C87.513 114.671 86.7641 114.703 86.0394 114.703C78.006 114.703 73.8498 110.971 73.8498 110.971C73.8498 110.971 74.5409 116.13 78.6975 120.922C82.5828 125.347 87.6444 127.956 95.3818 128.062C95.3818 128.062 95.6285 131.615 92.2046 134.688C90.0068 136.627 84.9532 137.263 84.9532 137.263C84.9532 137.263 94.4351 139.162 95.472 153.017C96.0401 160.523 97.9577 163.132 97.9577 163.132H97.8012Z" fill="black"/>
<path d="M48.8361 74.036C49.8976 74.036 50.9348 73.8813 51.9146 73.5468C54.6798 72.6422 56.4332 70.466 58.2852 68.2087C60.1781 65.8942 62.31 63.2859 66.0057 61.3381L69.808 59.3166L66.2774 56.8639C65.981 56.6765 63.3307 54.9076 59.7503 54.9076C56.8036 54.9076 54.0712 56.0979 51.8237 58.3797C46.3423 63.9218 41.4287 64.3703 41.2471 64.3783L37.4201 64.5979L38.992 68.0781C40.5722 71.5257 44.7122 74.036 48.8361 74.036ZM53.7089 60.2216C55.7502 58.1436 57.8983 57.5239 59.7503 57.5239C62.5979 57.5239 64.7549 59.0232 64.7549 59.0232C57.0503 63.0905 55.4699 69.6021 51.0667 71.0696C50.3424 71.3218 49.585 71.4362 48.8361 71.4362C45.6015 71.4362 42.4736 69.3659 41.4036 66.9942C41.4036 66.9862 47.3298 66.6275 53.7089 60.2216Z" fill="black"/>
<path d="M66.1116 104.387C65.6995 94.5413 68.2516 86.5542 72.2513 79.9774C70.0211 86.8314 70.3256 95.2259 77.9146 103.058C77.9146 103.058 62.8191 85.1527 83.9229 66.7984C92.368 59.8142 101.603 55.5023 106.352 52.4464C89.1746 57.9965 80.7873 51.8839 80.7873 51.8839C86.2687 56.5947 93.372 56.5129 97.7838 55.8283C96.5905 56.4069 95.3394 57.0105 94.0138 57.7193C79.5111 65.519 66.4982 78.3394 64.268 96.0898V95.9512C60.9012 113.384 53.4113 117.859 53.4113 117.859C59.3706 114.949 63.1236 107.223 64.0375 104.436C65.0331 119.758 72.5809 130.393 81.4125 140.63C85.997 145.936 87.6104 151.094 87.6104 151.094C87.6104 151.094 86.7131 145.251 82.7377 140.491C74.515 130.703 66.6874 118.495 66.1116 104.387Z" fill="black"/>
<path d="M133.458 68.4694V71.9903C134.685 70.5147 137.056 70.8165 137.056 70.8165V75.894C137.056 75.894 136.973 78.3878 136.076 79.4721H138.644H141.204C140.323 78.3958 140.232 75.894 140.232 75.894V70.8165C140.232 70.8165 142.603 70.5147 143.821 71.9903V68.4694H138.644H133.458Z" fill="black"/>
<path d="M131.251 47.5886C132.889 48.8764 133.835 49.0883 133.868 49.1125L134.51 49.4058V46.0888L128.485 43.5785C128.485 43.587 128.543 45.5021 131.251 47.5886Z" fill="black"/>
<path d="M145.584 47.5886C148.309 45.5021 148.358 43.5785 148.358 43.5785L142.333 46.0888V49.4058L142.967 49.1125C143.008 49.0883 143.947 48.8764 145.584 47.5886Z" fill="black"/>
<path d="M156.437 34.0839C156.437 29.0556 147.885 24.5322 138.444 24.5322H138.436H138.411H138.386C128.946 24.5322 120.394 29.0556 120.394 34.0839L120.584 35.323L124.353 56.7494L120.567 58.9253L110.772 64.5899H110.805C110.805 64.5899 108.599 65.7064 107.579 66.3991C103.85 68.9666 103.06 72.7071 105.225 74.256C105.76 71.2074 108.196 68.0128 112.756 68.0128C116.04 68.0128 118.542 69.6919 120.567 72.2103C121.085 72.8457 121.579 73.5223 122.04 74.256C122.608 75.1767 123.176 75.9834 123.744 76.7659H98.5165C100.369 80.4577 102.13 84.3698 102.13 88.6164V143.906C102.13 157.288 112.525 163.678 123.769 163.678C132.461 163.678 133.629 163.287 138.428 168.014C143.201 163.279 144.37 163.678 153.07 163.678C164.322 163.678 174.701 157.288 174.701 143.906V88.6164C174.701 84.3698 176.463 80.4577 178.322 76.7659H153.087C153.647 75.9919 154.215 75.1767 154.783 74.256C155.251 73.5223 155.737 72.8457 156.248 72.2103C158.289 69.6834 160.783 68.0128 164.067 68.0128C168.627 68.0128 171.055 71.1993 171.598 74.256C173.763 72.7071 172.981 68.9666 169.228 66.3991C168.223 65.7064 166.018 64.5899 166.018 64.5899H166.05L156.256 58.9253L152.486 56.7494L156.256 35.323L156.437 34.0839ZM124.106 36.578L137.358 41.0279V61.6395L127.604 56.5459L124.106 36.578ZM126.847 80.3602C129.02 82.5034 131.152 83.8323 133.177 84.5657C132.913 85.6004 132.567 87.736 133.547 89.8631C134.345 91.5744 135.794 92.8949 137.876 93.7753C138.107 95.8944 139.457 99.0808 143.201 100.491C141.564 102.129 139.967 103.669 139.317 104.297L124.131 104.061C123.785 103.889 123.201 103.506 122.937 102.96C122.904 102.887 122.855 102.846 122.83 102.765L125.308 103.164C125.366 103.172 125.415 103.172 125.464 103.172C125.942 103.172 126.361 102.846 126.444 102.358C126.526 101.811 126.156 101.314 125.621 101.233L122.576 100.76L125.958 89.1951L122.756 82.5199L117.62 87.8988L117.308 99.9286L113.859 99.3907C113.323 99.2847 112.813 99.676 112.723 100.206C112.641 100.735 113.003 101.233 113.546 101.33L114.995 101.55C114.476 101.844 114.139 102.072 114.097 102.104L113.801 102.308L113.719 102.667C112.879 106.041 114.781 109.244 116.83 110.678L116.756 111.103C116.674 111.624 116.789 112.129 117.101 112.553C117.398 112.985 117.859 113.246 118.369 113.335C118.476 113.352 118.592 113.36 118.69 113.36C119.579 113.36 120.353 112.749 120.575 111.86C121.341 111.95 122.04 111.966 122.517 111.966H122.921L142.848 115.528L143.185 115.308C144.774 114.207 150.823 109.839 152.807 108.396C153.35 108.861 153.959 109.285 154.7 109.635C154.058 111.771 154.017 115.055 156.56 117.647H105.776V88.6241C105.776 85.8124 104.945 82.9845 103.965 80.3767H126.847V80.3602ZM151.474 106.913C149.457 108.38 144.272 112.129 142.395 113.433L124.287 110.214C124.328 110.051 124.369 109.896 124.411 109.733C124.65 108.804 124.888 107.533 124.905 106.041L140.123 106.286L140.411 105.992C140.642 105.764 145.465 101.151 147.926 98.4937C148.51 99.2194 149.243 99.9125 150.198 100.523C149.869 102.284 150.009 104.794 151.474 106.913ZM121.159 103.808C121.588 104.696 122.361 105.291 122.896 105.625C122.88 106.457 122.798 107.753 122.576 108.894C122.526 109.146 122.46 109.383 122.386 109.619C122.345 109.766 122.304 109.888 122.271 109.986C121.472 109.986 119.9 109.888 118.616 109.424C117.192 108.902 115.069 106.318 115.562 103.474C116.18 103.099 117.604 102.308 118.937 102.308C119.966 102.3 120.666 102.781 121.159 103.808ZM119.275 100.23L119.579 88.6813L122.197 85.9349L123.843 89.3417L120.6 100.425L119.275 100.23ZM151.309 160.101C150.321 160.101 149.408 160.117 148.584 160.149L150.741 153.507C151.079 152.586 149.375 151.404 148.675 150.369C149.737 151.03 152.486 152.472 153.811 153.051C153.671 153.263 151.309 160.101 151.309 160.101ZM158.075 152.554L156.668 159.823C155.77 159.945 154.815 160.011 153.836 160.051L155.318 153.059C155.762 150.98 150.124 150.337 147.342 146.254C145.984 147.769 143.424 148.217 140.856 148.217C138.51 148.217 136.165 147.843 134.74 147.566C134.378 147.509 134.032 147.468 133.695 147.468C132.872 147.468 132.123 147.721 131.604 148.585L131.193 149.269L123.514 147.476L121.604 150.606C121.332 151.111 121.316 151.543 121.752 152.016L122.271 152.578C121.917 153.686 120.32 155.357 120.32 155.357L119.176 153.947C118.27 152.944 118.418 151.119 119.365 149.424L122.411 144.33L128.913 145.259L127.9 142.977C126.542 139.962 128.608 136.123 128.83 133.914C128.756 134.582 128.139 134.729 127.415 134.729C126.757 134.729 126.024 134.607 125.538 134.607C125.349 134.607 125.184 134.623 125.094 134.688L123.333 135.748L121.941 134.534C121.777 134.297 121.719 133.751 122.131 133.344L125.349 129.774L121.546 125.381L126.872 128.03L128.493 126.082C128.938 126.514 128.748 127.647 128.748 127.647C130.411 127.688 135.07 130.239 135.317 136.188C135.333 136.367 135.333 136.571 135.333 136.767C135.333 136.767 135.375 136.84 135.456 136.963C135.786 137.411 136.691 138.56 137.843 138.666L145.202 139.383H145.235C146.041 139.383 147.646 138.446 149.704 138.446C150.823 138.446 152.075 138.731 153.408 139.562C153.408 139.562 154.075 139.041 155.161 138.983C155.244 138.976 155.334 138.976 155.416 138.976C158.717 138.976 160.083 141.926 161.853 144.379C163.186 146.245 164.964 149.017 164.964 149.017C164.306 149.791 163.696 150.214 162.676 150.214C162.396 150.214 162.075 150.19 161.729 150.125C158.19 149.481 157.68 142.276 155.663 141.706C155.556 141.673 155.441 141.665 155.342 141.665C154.692 141.665 154.404 142.235 154.404 142.235C155.325 144.689 154.791 145.683 155.778 147.574C156.52 148.975 157.836 150.133 158.379 150.679C158.379 150.695 158.231 151.755 158.075 152.554ZM118.558 145.675L118.896 146.514C118.674 147.248 116.122 148.291 116.122 148.291L115.571 147.101C114.986 145.83 115.11 143.686 116.888 142.374L121.019 139.88L125.398 140.801C125.316 142.179 126.147 143.206 126.147 143.206L121.554 142.333L118.805 144.216C118.344 144.534 118.312 145.129 118.558 145.675ZM158.766 159.424L160.025 152.92C160.091 152.537 160.174 152.089 160.231 151.714C160.586 151.861 160.964 151.983 161.376 152.056C161.844 152.146 162.281 152.187 162.676 152.187C164.602 152.187 165.721 151.184 166.47 150.328L167.441 149.212L166.651 147.989C166.577 147.867 164.832 145.129 163.483 143.254C163.219 142.887 162.964 142.521 162.709 142.121C161.178 139.856 159.26 137.012 155.416 137.012L155.071 137.019C154.437 137.06 153.893 137.183 153.457 137.345C152.247 136.783 151.005 136.498 149.713 136.498C148.124 136.498 146.782 136.93 145.893 137.232C145.638 137.305 145.408 137.386 145.226 137.419L138.041 136.718C137.95 136.701 137.654 136.531 137.3 136.107V136.074L138.856 135.455C138.42 130.328 133.448 127.174 130.674 126.106C130.551 125.593 130.304 125.08 129.868 124.664L128.32 123.213L126.962 124.827L126.296 125.65L116.237 121.559L122.781 129.692L120.197 133.564C119.25 134.558 120.295 135.553 120.295 135.553L122.962 137.37L125.728 136.351C125.826 136.351 125.909 136.375 125.999 136.384C125.868 136.799 125.695 138.43 125.58 138.886L120.781 137.949L115.735 140.769C113.143 142.651 112.789 145.772 113.752 147.908L114.311 149.122L115.11 150.834L116.871 150.108C116.896 150.1 116.921 150.092 116.937 150.076C116.303 152.081 116.559 153.988 117.694 155.243L118.764 156.58L120.188 158.365L121.752 156.702C122.213 156.246 123.703 154.591 124.164 153.173L124.502 152.089L123.736 151.258L123.612 151.111L124.468 149.709L130.732 151.168L132.139 151.486L132.888 150.263L133.3 149.595C133.374 149.457 133.399 149.432 133.687 149.432C133.909 149.432 134.131 149.457 134.37 149.506C136.732 149.946 138.913 150.166 140.848 150.166C142.724 150.166 143.843 150.092 145.186 149.652C145.186 149.652 148.552 153.434 148.667 153.581L146.609 159.872L146.518 160.255C142.617 160.565 140.716 161.413 138.42 163.687C135.086 160.41 132.724 160.068 123.76 160.068C113.035 160.068 105.767 153.841 105.767 143.898V119.586H171.055L171.072 143.898C171.08 151.966 166.297 157.59 158.766 159.424ZM172.882 80.3602C171.886 82.9684 171.055 85.7962 171.055 88.608L171.063 106.75C167.236 106.114 166.783 102.031 166.767 101.852L166.693 101.021L165.87 100.947C164.207 100.792 163.104 100.092 162.174 99.1948C160.297 97.3365 160.289 94.3213 160.297 94.2971C160.273 94.4514 158.231 97.2797 160.602 100.369C161.598 101.673 163.038 102.471 164.906 102.789C165.343 105.055 167.046 108.25 171.063 108.739V117.623H159.77C154.56 114.753 156.766 109.7 156.873 109.489L157.317 108.527L156.322 108.152C150.684 106.082 152.231 100.507 152.313 100.271L152.544 99.4559L151.779 99.0973C147.119 96.9622 147.753 91.2001 147.811 90.9632C146.379 92.1128 145.86 94.4599 146.848 96.7583C146.313 97.3615 145.597 98.0944 144.815 98.8934C139.992 97.679 139.844 93.2861 139.844 93.0826L139.835 92.4061L139.202 92.1615C137.317 91.4685 136.024 90.4337 135.391 89.0399C134.675 87.4995 134.93 85.8857 135.127 85.1116C135.679 85.2337 136.23 85.3236 136.757 85.3643C137.3 85.4211 137.86 85.4537 138.42 85.4537H138.453H138.494C139.054 85.4537 139.605 85.4211 140.148 85.3643C143.152 85.0709 146.518 83.7912 150.025 80.3517H172.882V80.3602ZM155.285 62.0223L159.746 64.5899H159.812L160.931 65.2338C158.412 65.9264 156.486 67.1735 154.873 68.8115C154.815 68.8606 154.758 68.9255 154.7 68.9827C154.33 69.374 153.959 69.7979 153.614 70.2294C153.548 70.3112 153.482 70.4007 153.408 70.4905C153.062 70.9305 152.741 71.379 152.428 71.8517C152.379 71.9331 152.321 72.0145 152.264 72.0878C151.894 72.6338 151.54 73.2209 151.185 73.8237C148.009 79.2436 142.938 82.4792 138.428 82.4873C133.926 82.4792 128.856 79.2436 125.678 73.8237C125.332 73.2374 124.987 72.6664 124.616 72.112C124.542 72.0064 124.476 71.9004 124.411 71.811C124.098 71.3625 123.785 70.9225 123.464 70.5066C123.382 70.3926 123.308 70.3032 123.225 70.2052C122.88 69.7894 122.526 69.374 122.172 68.9908C122.098 68.934 122.049 68.8606 121.975 68.7949C120.353 67.157 118.435 65.9179 115.908 65.2338L117.044 64.5899H117.093L121.554 62.0223L126.139 59.4229L138.386 66.0239L138.411 65.9997L138.444 66.0239L150.692 59.4229L155.285 62.0223ZM149.243 56.5536L139.481 61.6472V41.0279L152.724 36.578L149.243 56.5536ZM138.42 38.7623L123.9 33.0816C125.135 30.1882 130.831 27.7269 138.42 27.7189C146.017 27.7269 151.712 30.1882 152.939 33.0816L138.42 38.7623Z" fill="black"/>
<path d="M26.1173 272.904V247.391H41.2305V238.107H0V247.391H15.1127V272.904H26.1173ZM56.639 238.107H45.6346V272.904H56.639V238.107ZM64.6922 238.107V272.904H74.8163V253.678L93.6705 272.904H103.061V238.107H92.9369V257.186L74.5227 238.107H64.6922ZM124.69 259.745L137.381 272.904H151.541L133.86 254.774L150.881 238.107H137.528L124.69 251.192H121.755V238.107H111.117V272.904H121.755V259.745H124.69ZM173.429 237.156C159.124 237.156 150.54 245.197 150.54 255.578C150.54 265.959 159.124 274 173.429 274C187.662 274 196.246 265.959 196.246 255.578C196.246 245.197 187.662 237.156 173.429 237.156ZM173.429 265.52C166.314 265.52 161.765 261.28 161.765 255.578C161.765 249.876 166.314 245.709 173.429 245.709C180.473 245.709 185.094 249.876 185.094 255.578C185.094 261.28 180.473 265.52 173.429 265.52ZM236.588 238.107H201.301V272.904H211.938V260.769H235.048V253.093H211.938V246.952H236.588V238.107ZM276.638 238.107H241.349V272.904H251.987V260.769H275.097V253.093H251.987V246.952H276.638V238.107Z" fill="black"/>
</g>
<defs>
<clipPath id="clip0_8_167">
<rect width="277" height="274" fill="white"/>
</clipPath>
</defs>
</svg>
