<?xml version="1.0" encoding="UTF-8"?>
<svg id="_Слой_2" data-name="Слой 2" xmlns="http://www.w3.org/2000/svg" xmlns:xlink="http://www.w3.org/1999/xlink" viewBox="0 0 1457 187">
  <defs>
    <style>
      .cls-1 {
        fill: #f08220;
      }

      .cls-2 {
        clip-path: url(#clippath);
      }

      .cls-3 {
        fill: none;
      }
    </style>
    <clipPath id="clippath">
      <rect class="cls-3" width="1457" height="187"/>
    </clipPath>
  </defs>
  <g id="_Слой_1-2" data-name="Слой 1">
    <g class="cls-2">
      <path class="cls-1" d="M0,187V43.63c18.66-6.69,47.03-14.79,81.95-16.39,102.3-4.67,120.12,48.05,199.09,51.75,109.43,5.12,146.93-89.72,237.66-70.02,58.25,12.66,52.55,53.87,114.84,67.05,72.38,15.32,100.08-36.07,202.66-40.92,83.76-3.96,81.48,29.53,162.13,26.76,118.29-4.09,146.93-76.95,233.11-59.03,33.88,7.05,47.1,22,77.35,34.37,12.15,4.97,26.09,8.94,41.99,12.06,21.06,4.14,57.82,7.86,106.23-5.63V186.98"/>
    </g>
  </g>
</svg>